<svg width="29" height="28" viewBox="0 0 29 28" fill="none" xmlns="http://www.w3.org/2000/svg">
<g clip-path="url(#clip0)">
<path d="M14.0436 0.320736L14.0426 0.32172L8.36483 6.03678C7.93948 6.46493 7.94107 7.15744 8.36854 7.58362C8.79595 8.00974 9.48727 8.0081 9.91267 7.57995L13.7246 3.74286L13.7246 21.9063C13.7246 22.5103 14.2135 23 14.8165 23C15.4196 23 15.9084 22.5103 15.9084 21.9063L15.9084 3.74291L19.7203 7.5799C20.1457 8.00805 20.8371 8.00969 21.2645 7.58356C21.692 7.15738 21.6935 6.46482 21.2682 6.03673L15.5904 0.321664L15.5894 0.32068C15.1626 -0.107687 14.469 -0.10632 14.0436 0.320736Z" fill="#0F3F7B"/>
</g>
<defs>
<clipPath id="clip0">
<rect width="28" height="27.9521" fill="white" transform="translate(0.839844 28) rotate(-90)"/>
</clipPath>
</defs>
</svg>
