<svg width="43" height="31" viewBox="0 0 43 31" fill="none" xmlns="http://www.w3.org/2000/svg">
<path d="M21.5 16.7969C20.1107 16.7969 18.9805 17.9271 18.9805 19.3164C18.9805 20.7057 20.1107 21.8359 21.5 21.8359C22.8893 21.8359 24.0195 20.7057 24.0195 19.3164C24.0195 17.9271 22.8893 16.7969 21.5 16.7969ZM21.5 20.1562C21.0369 20.1562 20.6602 19.7795 20.6602 19.3164C20.6602 18.8533 21.0369 18.4766 21.5 18.4766C21.9631 18.4766 22.3398 18.8533 22.3398 19.3164C22.3398 19.7795 21.9631 20.1562 21.5 20.1562Z" fill="#04174D"/>
<path d="M21.5 12.5977C20.5612 12.5977 19.6534 12.7874 18.8021 13.1616C18.3775 13.3483 18.1845 13.8438 18.3712 14.2684C18.5578 14.6931 19.0534 14.8859 19.478 14.6994C20.115 14.4194 20.7954 14.2773 21.5 14.2773C24.2785 14.2773 26.5391 16.5379 26.5391 19.3164C26.5391 22.0949 24.2785 24.3555 21.5 24.3555C18.7215 24.3555 16.4609 22.0949 16.4609 19.3164C16.4609 19.2877 16.4609 19.2596 16.4615 19.2309C16.4723 18.7672 16.1051 18.3826 15.6414 18.3718C15.177 18.3602 14.7931 18.7282 14.7823 19.1919C14.7813 19.2338 14.7812 19.2746 14.7812 19.3164C14.7812 23.0211 17.7953 26.0352 21.5 26.0352C25.2047 26.0352 28.2188 23.0211 28.2188 19.3164C28.2188 15.6117 25.2047 12.5977 21.5 12.5977Z" fill="#04174D"/>
<path d="M21.5 0C21.0362 0 20.6602 0.375998 20.6602 0.839844V5.87891C20.6602 6.34275 21.0362 6.71875 21.5 6.71875C21.9638 6.71875 22.3398 6.34275 22.3398 5.87891V0.839844C22.3398 0.375998 21.9638 0 21.5 0Z" fill="#04174D"/>
<path d="M12.1175 6.22655L8.55485 2.66394C8.22689 2.33598 7.69511 2.33598 7.36706 2.66394C7.0391 2.9919 7.0391 3.52369 7.36706 3.85173L10.9297 7.41434C11.2576 7.7423 11.7895 7.74239 12.1175 7.41434C12.4454 7.08639 12.4454 6.5546 12.1175 6.22655Z" fill="#04174D"/>
<path d="M35.6331 2.66394C35.3051 2.33598 34.7733 2.33598 34.4453 2.66394L30.8827 6.22655C30.5547 6.55451 30.5547 7.0863 30.8827 7.41434C31.2106 7.7423 31.7424 7.74239 32.0705 7.41434L35.6331 3.85173C35.9611 3.52377 35.9611 2.99198 35.6331 2.66394Z" fill="#04174D"/>
<path d="M42.7896 19.46C37.4545 13.4199 29.5328 8.39844 21.5 8.39844C13.4661 8.39844 5.54447 13.4212 0.210373 19.46C-0.0966735 19.8077 -0.0637516 20.3384 0.28386 20.6455C0.631555 20.9525 1.16234 20.9196 1.4693 20.572C1.64827 20.3693 1.83161 20.1674 2.0173 19.9668C6.16739 26.2374 13.6905 30.2344 21.5 30.2344C29.3094 30.2344 36.8326 26.2374 40.9827 19.9668C41.1684 20.1675 41.3517 20.3694 41.5307 20.572C41.8367 20.9185 42.3674 20.9534 42.7161 20.6455C43.0637 20.3384 43.0967 19.8076 42.7896 19.46ZM21.5 28.5547C14.1165 28.5547 7.01512 24.7184 3.21752 18.7302C6.20971 15.7982 13.1235 10.0781 21.5 10.0781C29.8766 10.0781 36.7903 15.7982 39.7825 18.7301C35.9849 24.7184 28.8835 28.5547 21.5 28.5547Z" fill="#04174D"/>
</svg>
