<svg width="29" height="28" viewBox="0 0 29 28" fill="none" xmlns="http://www.w3.org/2000/svg">
<path d="M6.22757 25.793C4.37657 25.7534 2.68311 24.1203 2.3582 22.2992C1.86591 19.5477 4.07136 17.0733 6.78878 17.1624C9.01392 17.2317 11.2489 17.1822 13.4839 17.1723C14.7441 17.1624 15.8764 16.1924 16.0438 15.0047C16.2308 13.6884 15.5121 12.5106 14.2617 12.1246C13.9073 12.0157 13.5233 11.986 13.1491 11.9761C11.2292 11.9662 9.30929 11.9761 7.38937 11.9563C7.11369 11.9563 6.79863 11.8672 6.58202 11.7089C6.31618 11.5109 6.20788 11.1744 6.36541 10.8181C6.53279 10.4321 6.81832 10.2341 7.24168 10.2341C8.99423 10.244 10.7566 10.2242 12.5092 10.244C13.159 10.2539 13.8285 10.2341 14.4685 10.3628C16.4475 10.7389 17.9637 12.7778 17.8259 14.7672C17.6683 16.9941 15.9552 18.7955 13.8383 18.8548C11.7412 18.9142 6.71986 18.8845 6.31618 18.9439C4.85902 19.132 3.96305 20.2603 4.06151 21.7845C4.14028 23.0514 5.31192 24.1005 6.68048 24.1005C10.4416 24.1005 17.304 24.1005 21.0651 24.1005C21.6854 24.1005 22.0201 24.3776 22.0595 24.8824C22.0989 25.4664 21.7642 25.8128 21.1143 25.8128C19.7852 25.8227 8.15734 25.8425 6.22757 25.793Z" fill="#0F3F7B"/>
<path d="M24.6794 17.7661C26.7077 17.6474 28.539 19.9535 27.5839 22.0616C27.0129 23.3384 26.2252 24.4667 25.3293 25.5159C24.9748 25.9316 24.3644 25.9415 24.0296 25.5357C23.1435 24.4568 22.2968 23.3384 21.7651 22.0319C20.9479 19.9436 22.4445 17.7661 24.6794 17.7661ZM24.5613 23.4968C24.6204 23.5166 24.6893 23.5265 24.7484 23.5463C25.152 22.8435 25.5951 22.1606 25.9594 21.4381C26.2548 20.8541 26.0677 20.2009 25.5656 19.805C25.0339 19.3893 24.3348 19.3794 23.8032 19.7951C23.301 20.191 23.0943 20.8244 23.3896 21.4084C23.7441 22.121 24.1675 22.794 24.5613 23.4968Z" fill="#0F3F7B"/>
<path d="M5.36108 1.53419C7.3893 1.41542 9.22061 3.72153 8.26557 5.8297C7.69452 7.10648 6.90686 8.23479 6.0109 9.28392C5.65645 9.69962 5.04602 9.70952 4.71126 9.30372C3.82514 8.22489 2.97841 7.10647 2.44674 5.80001C1.62954 3.72153 3.1261 1.53419 5.36108 1.53419ZM5.25278 7.26484C5.31185 7.28463 5.38077 7.29453 5.43985 7.31432C5.84352 6.6116 6.28658 5.92867 6.65087 5.20616C6.94624 4.6222 6.75917 3.96897 6.25704 3.57307C5.72537 3.15738 5.02632 3.14748 4.49466 3.56317C3.99252 3.95907 3.78576 4.59251 4.08113 5.17646C4.42573 5.88908 4.85895 6.57201 5.25278 7.26484Z" fill="#0F3F7B"/>
</svg>
