<svg width="27" height="26" viewBox="0 0 27 26" fill="none" xmlns="http://www.w3.org/2000/svg">
<path d="M24.73 18.288L22.0937 16.7634L24.3783 15.414C24.7997 15.1651 24.9399 14.6211 24.6914 14.199C24.4429 13.7771 23.9 13.6366 23.4785 13.8854L20.3315 15.7443L15.5865 12.9999L20.3307 10.2561L23.4787 12.1147C23.6198 12.1981 23.7747 12.2376 23.9275 12.2376C24.2308 12.2376 24.5262 12.0815 24.6914 11.8007C24.9398 11.3786 24.7995 10.8347 24.3781 10.5858L22.0931 9.23683L24.73 7.71183C25.1536 7.46683 25.2988 6.92419 25.0542 6.49985C24.8096 6.07539 24.2679 5.93 23.8443 6.17512L21.208 7.69988L21.184 5.04276C21.1797 4.55276 20.7784 4.15681 20.2904 4.16355C19.8012 4.16793 19.4082 4.56873 19.4127 5.05873L19.4456 8.71903L14.7009 11.4632V5.97531L17.882 4.17432C18.3079 3.93322 18.458 3.392 18.2173 2.9653C17.9766 2.53871 17.4362 2.38823 17.0104 2.62944L14.7009 3.93701V0.887247C14.7009 0.39725 14.3043 0 13.8151 0C13.326 0 12.9294 0.39725 12.9294 0.887247V3.93701L10.6199 2.62956C10.1938 2.38835 9.65375 2.53871 9.41295 2.96542C9.17227 3.392 9.32237 3.93334 9.74823 4.17444L12.9293 5.97543V11.4632L8.1845 8.71903L8.21745 5.05873C8.22194 4.56873 7.82891 4.16793 7.33976 4.16355C7.33704 4.16355 7.33444 4.16355 7.33161 4.16355C6.84623 4.16355 6.45049 4.55548 6.44612 5.04287L6.42214 7.69988L3.78586 6.17512C3.36225 5.93 2.82054 6.07551 2.57596 6.49985C2.33138 6.92419 2.47652 7.46683 2.90014 7.71183L5.53689 9.23683L3.25159 10.586C2.83022 10.8348 2.68992 11.3788 2.93828 11.801C3.1035 12.0817 3.39886 12.2379 3.70225 12.2379C3.85507 12.2379 4.00989 12.1982 4.15114 12.1149L7.29949 10.2563L12.0438 13.0002L7.29866 15.7445L4.15114 13.8853C3.73 13.6365 3.18676 13.7768 2.93828 14.1989C2.68981 14.621 2.82999 15.1649 3.25136 15.4137L5.5363 16.7633L2.90002 18.2879C2.4764 18.5329 2.33126 19.0756 2.57584 19.4999C2.73988 19.7845 3.0376 19.9437 3.34371 19.9437C3.49393 19.9437 3.64627 19.9053 3.78574 19.8246L6.42202 18.2999L6.446 20.9571C6.45037 21.4444 6.84611 21.8364 7.33149 21.8364C7.33421 21.8364 7.33692 21.8364 7.33964 21.8363C7.8288 21.832 8.22182 21.4312 8.21733 20.9412L8.18439 17.2807L12.9293 14.5365V20.0246L9.74823 21.8256C9.32237 22.0667 9.17227 22.6079 9.41295 23.0346C9.5758 23.3232 9.87589 23.4854 10.1848 23.4854C10.3325 23.4854 10.4822 23.4484 10.6199 23.3704L12.9294 22.063V25.1128C12.9294 25.6027 13.326 26 13.8151 26C14.3043 26 14.7009 25.6027 14.7009 25.1128V22.063L17.0104 23.3704C17.1481 23.4484 17.2977 23.4854 17.4454 23.4854C17.7544 23.4854 18.0545 23.3232 18.2173 23.0346C18.458 22.608 18.3079 22.0667 17.882 21.8256L14.7009 20.0246V14.5367L19.4456 17.2807L19.4119 20.941C19.4073 21.431 19.8002 21.8319 20.2893 21.8364C20.2922 21.8366 20.2949 21.8366 20.2977 21.8366C20.783 21.8366 21.1787 21.4446 21.1832 20.9575L21.2078 18.2999L23.8444 19.8248C23.9839 19.9054 24.1362 19.9438 24.2864 19.9438C24.5925 19.9438 24.8903 19.7845 25.0543 19.5C25.2989 19.0757 25.1537 18.533 24.73 18.288Z" fill="#0F3F7B"/>
</svg>
