<svg width="27" height="26" viewBox="0 0 27 26" fill="none" xmlns="http://www.w3.org/2000/svg">
<g clip-path="url(#clip0)">
<path d="M22.4332 25.1868H5.19717C3.91136 25.1868 2.86523 24.1389 2.86523 22.8509V10.5608C2.86523 10.1121 3.22836 9.74829 3.67634 9.74829C4.12433 9.74829 4.48745 10.1121 4.48745 10.5608V22.8509C4.48745 23.2429 4.80581 23.5618 5.19717 23.5618H22.4332C22.8246 23.5618 23.143 23.2429 23.143 22.8509V10.5608C23.143 10.1121 23.5061 9.74829 23.9541 9.74829C24.402 9.74829 24.7652 10.1121 24.7652 10.5608V22.8509C24.7652 24.1389 23.7191 25.1868 22.4332 25.1868Z" fill="#0F3F7B"/>
<path d="M25.9823 13.4042C25.7747 13.4042 25.5671 13.3249 25.4087 13.1662L15.3211 3.06141C14.491 2.22982 13.1403 2.22982 12.3101 3.06141L2.22254 13.1663C1.9058 13.4836 1.39222 13.4836 1.07548 13.1663C0.758693 12.849 0.758693 12.3345 1.07548 12.0172L11.163 1.91233C12.6257 0.447192 15.0056 0.447192 16.4682 1.91233L26.5558 12.0172C26.8725 12.3345 26.8725 12.8489 26.5558 13.1662C26.3974 13.3249 26.1898 13.4042 25.9823 13.4042Z" fill="#0F3F7B"/>
<path d="M17.0597 25.1868H10.5709C10.1229 25.1868 9.75977 24.823 9.75977 24.3743V17.1633C9.75977 15.7633 10.8968 14.6243 12.2945 14.6243H15.3361C16.7338 14.6243 17.8709 15.7633 17.8709 17.1633V24.3743C17.8709 24.823 17.5077 25.1868 17.0597 25.1868ZM11.382 23.5618H16.2486V17.1633C16.2486 16.6593 15.8393 16.2493 15.3361 16.2493H12.2945C11.7913 16.2493 11.382 16.6593 11.382 17.1633V23.5618Z" fill="#0F3F7B"/>
</g>
<defs>
<clipPath id="clip0">
<rect width="25.9555" height="26" fill="white" transform="translate(0.837891)"/>
</clipPath>
</defs>
</svg>
