<svg width="73" height="18" viewBox="0 0 73 18" fill="none" xmlns="http://www.w3.org/2000/svg">
<path d="M19.6132 0.151978V17H15.5092V6.46398L11.8612 17H8.3092L4.6372 6.43998V17H0.533203V0.151978H5.5492L10.1332 11.888L14.6212 0.151978H19.6132Z" fill="#0F3F7B"/>
<path d="M27.5353 3.43998C28.5593 3.43998 29.4393 3.67198 30.1753 4.13598C30.9113 4.59998 31.4553 5.23198 31.8073 6.03198V3.60798H35.8873V17H31.8073V14.576C31.4553 15.376 30.9113 16.008 30.1753 16.472C29.4393 16.936 28.5593 17.168 27.5353 17.168C26.4313 17.168 25.4393 16.896 24.5593 16.352C23.6953 15.792 23.0073 14.992 22.4953 13.952C21.9993 12.912 21.7513 11.696 21.7513 10.304C21.7513 8.89598 21.9993 7.67998 22.4953 6.65598C23.0073 5.61598 23.6953 4.82398 24.5593 4.27998C25.4393 3.71998 26.4313 3.43998 27.5353 3.43998ZM28.8553 7.03998C27.9753 7.03998 27.2633 7.32798 26.7193 7.90398C26.1913 8.47998 25.9273 9.27998 25.9273 10.304C25.9273 11.328 26.1913 12.128 26.7193 12.704C27.2633 13.28 27.9753 13.568 28.8553 13.568C29.7193 13.568 30.4233 13.272 30.9673 12.68C31.5273 12.088 31.8073 11.296 31.8073 10.304C31.8073 9.29598 31.5273 8.50398 30.9673 7.92798C30.4233 7.33598 29.7193 7.03998 28.8553 7.03998Z" fill="#0F3F7B"/>
<path d="M42.8169 6.12798C43.3289 5.31198 43.9849 4.66398 44.7849 4.18398C45.6009 3.70398 46.4809 3.46398 47.4249 3.46398V7.85598H46.2489C45.1609 7.85598 44.3129 8.08798 43.7049 8.55198C43.1129 9.01598 42.8169 9.79998 42.8169 10.904V17H38.7129V3.60798H42.8169V6.12798Z" fill="#0F3F7B"/>
<path d="M56.7266 13.472V17H54.8786C53.3106 17 52.0866 16.616 51.2066 15.848C50.3426 15.064 49.9106 13.776 49.9106 11.984V7.06398H48.1106V3.60798H49.9106V0.319977H54.0146V3.60798H56.7026V7.06398H54.0146V12.056C54.0146 12.584 54.1186 12.952 54.3266 13.16C54.5506 13.368 54.9186 13.472 55.4306 13.472H56.7266Z" fill="#0F3F7B"/>
<path d="M64.1212 3.43998C65.1452 3.43998 66.0252 3.67198 66.7612 4.13598C67.4972 4.59998 68.0412 5.23198 68.3932 6.03198V3.60798H72.4732V17H68.3932V14.576C68.0412 15.376 67.4972 16.008 66.7612 16.472C66.0252 16.936 65.1452 17.168 64.1212 17.168C63.0172 17.168 62.0252 16.896 61.1452 16.352C60.2812 15.792 59.5932 14.992 59.0812 13.952C58.5852 12.912 58.3372 11.696 58.3372 10.304C58.3372 8.89598 58.5852 7.67998 59.0812 6.65598C59.5932 5.61598 60.2812 4.82398 61.1452 4.27998C62.0252 3.71998 63.0172 3.43998 64.1212 3.43998ZM65.4412 7.03998C64.5612 7.03998 63.8492 7.32798 63.3052 7.90398C62.7772 8.47998 62.5132 9.27998 62.5132 10.304C62.5132 11.328 62.7772 12.128 63.3052 12.704C63.8492 13.28 64.5612 13.568 65.4412 13.568C66.3052 13.568 67.0092 13.272 67.5532 12.68C68.1132 12.088 68.3932 11.296 68.3932 10.304C68.3932 9.29598 68.1132 8.50398 67.5532 7.92798C67.0092 7.33598 66.3052 7.03998 65.4412 7.03998Z" fill="#0F3F7B"/>
</svg>
