<svg width="91" height="22" viewBox="0 0 91 22" fill="none" xmlns="http://www.w3.org/2000/svg">
<path d="M0.350586 21.143H5.50082V8.43312L10.2595 21.143H14.4158L19.1444 8.46324V21.143H24.2946V0H18.2409L12.3678 14.6375L6.43448 0H0.350586V21.143Z" fill="#0F3F7B"/>
<path d="M26.9742 12.7099C26.9742 18.0107 30.2571 21.384 34.3532 21.384C36.853 21.384 38.63 20.2395 39.5637 18.7637V21.143H44.7139V4.33703H39.5637V6.71638C38.6601 5.24058 36.8831 4.09609 34.3833 4.09609C30.2571 4.09609 26.9742 7.4091 26.9742 12.7099ZM39.5637 12.74C39.5637 15.4206 37.8469 16.8964 35.8892 16.8964C33.9617 16.8964 32.2148 15.3904 32.2148 12.7099C32.2148 10.0294 33.9617 8.58371 35.8892 8.58371C37.8469 8.58371 39.5637 10.0595 39.5637 12.74Z" fill="#0F3F7B"/>
<path d="M53.5901 13.3424C53.5901 10.451 55.0056 9.60773 57.4452 9.60773H58.8608V4.15632C56.6019 4.15632 54.7647 5.36106 53.5901 7.13803V4.33703H48.4398V21.143H53.5901V13.3424Z" fill="#0F3F7B"/>
<path d="M62.1357 15.3001C62.1357 19.6672 64.5752 21.143 68.069 21.143H70.6893V16.7759H68.8521C67.7076 16.7759 67.2859 16.3542 67.2859 15.3603V8.61383H70.6591V4.33703H67.2859V0.240947H62.1357V4.33703H60.0876V8.61383H62.1357V15.3001Z" fill="#0F3F7B"/>
<path d="M72.534 12.7099C72.534 18.0107 75.8169 21.384 79.913 21.384C82.4128 21.384 84.1898 20.2395 85.1234 18.7637V21.143H90.2737V4.33703H85.1234V6.71638C84.2199 5.24058 82.4429 4.09609 79.9431 4.09609C75.8169 4.09609 72.534 7.4091 72.534 12.7099ZM85.1234 12.74C85.1234 15.4206 83.4067 16.8964 81.449 16.8964C79.5215 16.8964 77.7746 15.3904 77.7746 12.7099C77.7746 10.0294 79.5215 8.58371 81.449 8.58371C83.4067 8.58371 85.1234 10.0595 85.1234 12.74Z" fill="#0F3F7B"/>
</svg>
